<svg width= "1rem" height="1rem" viewBox="0 0 256 256" version="1.1" xmlns="http://www.w3.org/2000/svg" xmlns:xlink="http://www.w3.org/1999/xlink" xml:space="preserve" xmlns:serif="http://www.serif.com/" style="fill-rule:evenodd;clip-rule:evenodd;stroke-linejoin:round;stroke-miterlimit:2;">
    <g><path d="M257,168.25c0,-3.174 -2.576,-5.75 -5.75,-5.75l-244.5,0c-3.174,0 -5.75,2.576 -5.75,5.75l0,11.5c0,3.174 2.576,5.75 5.75,5.75l244.5,0c3.174,0 5.75,-2.576 5.75,-5.75l0,-11.5Z" style="fill:#e8e8e8;"/><path d="M257,122.25c0,-3.174 -2.576,-5.75 -5.75,-5.75l-244.5,0c-3.174,0 -5.75,2.576 -5.75,5.75l0,11.5c0,3.174 2.576,5.75 5.75,5.75l244.5,0c3.174,0 5.75,-2.576 5.75,-5.75l0,-11.5Z" style="fill:#e8e8e8;"/><path d="M257,76.25c0,-3.174 -2.576,-5.75 -5.75,-5.75l-244.5,0c-3.174,0 -5.75,2.576 -5.75,5.75l0,11.5c0,3.174 2.576,5.75 5.75,5.75l244.5,0c3.174,0 5.75,-2.576 5.75,-5.75l0,-11.5Z" style="fill:#e8e8e8;"/></g>
</svg>